<?xml version="1.0" standalone="no"?>
<!DOCTYPE svg PUBLIC "-//W3C//DTD SVG 20010904//EN"
 "http://www.w3.org/TR/2001/REC-SVG-20010904/DTD/svg10.dtd">
<svg version="1.0" xmlns="http://www.w3.org/2000/svg"
 width="200.000000pt" height="200.000000pt" viewBox="0 0 200.000000 200.000000"
 preserveAspectRatio="xMidYMid meet">
<metadata>
Created by potrace 1.14, written by Peter Selinger 2001-2017
</metadata>
<g transform="translate(0.000000,200.000000) scale(0.100000,-0.100000)"
fill="#000000" stroke="none">
<path d="M675 1935 c-27 -27 -33 -79 -12 -106 28 -37 50 -40 343 -39 l287 1
28 29 c16 16 29 38 29 50 0 33 -27 77 -52 84 -13 3 -153 6 -311 6 l-288 0 -24
-25z"/>
<path d="M765 1548 c0 -112 -1 -209 -3 -216 -2 -6 -24 -21 -48 -31 -170 -76
-314 -255 -360 -448 -78 -331 119 -677 447 -782 63 -20 82 -23 181 -27 329
-12 597 205 674 547 12 54 4 207 -16 282 -44 176 -167 332 -325 414 l-80 41 1
211 1 211 -237 0 -236 0 1 -202z m307 -418 c4 -14 10 -37 13 -52 3 -18 12 -28
23 -28 9 0 31 -9 48 -19 32 -19 32 -19 67 5 46 31 61 30 95 -3 54 -55 55 -56
23 -100 l-29 -40 22 -51 c27 -63 25 -62 72 -68 21 -2 42 -8 47 -13 4 -4 7 -35
5 -67 l-3 -59 -49 -12 c-26 -7 -49 -13 -50 -15 -1 -2 -11 -26 -22 -54 l-21
-50 29 -42 29 -42 -45 -48 c-43 -44 -46 -46 -68 -33 -73 46 -69 45 -123 20
-45 -22 -50 -28 -57 -68 -9 -53 -19 -61 -79 -61 -54 0 -66 10 -75 67 -6 37
-10 42 -60 63 l-55 22 -39 -26 c-22 -14 -43 -26 -48 -26 -4 0 -27 19 -50 43
l-42 43 28 44 28 44 -21 53 c-20 53 -27 59 -84 66 -34 5 -47 28 -45 82 2 56 8
63 59 71 48 7 55 11 55 29 0 8 9 30 19 48 l19 34 -29 47 -30 47 46 45 45 46
28 -18 c15 -9 35 -23 45 -30 16 -10 27 -8 70 12 29 13 53 27 54 31 1 5 7 27
13 51 l11 43 62 -3 c56 -3 62 -5 69 -28z"/>
<path d="M912 869 c-149 -74 -139 -290 17 -355 113 -47 251 34 265 157 17 155
-143 267 -282 198z"/>
</g>
</svg>
